<svg viewBox="0 0 280 280" fill="none" xmlns="http://www.w3.org/2000/svg">
  <rect width="280" height="280" rx="62" fill="#0f0e12"/>
  <circle cx="64" cy="52" r="3.5" fill="white" opacity="0.04"/><circle cx="92" cy="52" r="4" fill="white" opacity="0.06"/><circle cx="120" cy="52" r="5" fill="white" opacity="0.09"/><circle cx="148" cy="52" r="4.5" fill="white" opacity="0.07"/><circle cx="176" cy="52" r="3.5" fill="white" opacity="0.04"/><circle cx="204" cy="52" r="3" fill="white" opacity="0.03"/><circle cx="232" cy="52" r="2.5" fill="white" opacity="0.02"/>
  <circle cx="64" cy="80" r="4.5" fill="white" opacity="0.06"/><circle cx="92" cy="80" r="7" fill="white" opacity="0.2"/><circle cx="120" cy="80" r="9" fill="white" opacity="0.4"/><circle cx="148" cy="80" r="8" fill="white" opacity="0.25"/><circle cx="176" cy="80" r="5" fill="white" opacity="0.08"/><circle cx="204" cy="80" r="3.5" fill="white" opacity="0.04"/><circle cx="232" cy="80" r="3" fill="white" opacity="0.02"/>
  <circle cx="64" cy="108" r="6" fill="white" opacity="0.1"/><circle cx="92" cy="108" r="10" fill="white" opacity="0.5"/><circle cx="120" cy="108" r="13" fill="white" opacity="0.8"/><circle cx="148" cy="108" r="11" fill="white" opacity="0.55"/><circle cx="176" cy="108" r="7" fill="white" opacity="0.15"/><circle cx="204" cy="108" r="4" fill="white" opacity="0.05"/><circle cx="232" cy="108" r="3" fill="white" opacity="0.02"/>
  <circle cx="64" cy="140" r="7" fill="white" opacity="0.14"/><circle cx="92" cy="140" r="12" fill="white" opacity="0.7"/><circle cx="120" cy="140" r="16" fill="white" opacity="1"/><circle cx="148" cy="140" r="14" fill="white" opacity="0.85"/><circle cx="176" cy="140" r="10" fill="white" opacity="0.4"/><circle cx="204" cy="140" r="6" fill="white" opacity="0.1"/><circle cx="232" cy="140" r="3.5" fill="white" opacity="0.03"/>
  <circle cx="64" cy="168" r="6" fill="white" opacity="0.1"/><circle cx="92" cy="168" r="10" fill="white" opacity="0.5"/><circle cx="120" cy="168" r="13" fill="white" opacity="0.8"/><circle cx="148" cy="168" r="11" fill="white" opacity="0.55"/><circle cx="176" cy="168" r="7" fill="white" opacity="0.15"/><circle cx="204" cy="168" r="4" fill="white" opacity="0.05"/><circle cx="232" cy="168" r="3" fill="white" opacity="0.02"/>
  <circle cx="64" cy="196" r="4.5" fill="white" opacity="0.06"/><circle cx="92" cy="196" r="7" fill="white" opacity="0.2"/><circle cx="120" cy="196" r="9" fill="white" opacity="0.4"/><circle cx="148" cy="196" r="8" fill="white" opacity="0.25"/><circle cx="176" cy="196" r="5" fill="white" opacity="0.08"/><circle cx="204" cy="196" r="3.5" fill="white" opacity="0.04"/><circle cx="232" cy="196" r="3" fill="white" opacity="0.02"/>
  <circle cx="64" cy="228" r="3.5" fill="white" opacity="0.04"/><circle cx="92" cy="228" r="4" fill="white" opacity="0.06"/><circle cx="120" cy="228" r="5" fill="white" opacity="0.09"/><circle cx="148" cy="228" r="4.5" fill="white" opacity="0.07"/><circle cx="176" cy="228" r="3.5" fill="white" opacity="0.04"/><circle cx="204" cy="228" r="3" fill="white" opacity="0.03"/><circle cx="232" cy="228" r="2.5" fill="white" opacity="0.02"/>
</svg>
